<svg xmlns="http://www.w3.org/2000/svg" viewBox="-370.4 377.8 127.5 99.6">
<style type="text/css">
	.cl0{fill:none;stroke:#88FEFF;}
	.cl1{fill:none;stroke:#32DFE1;}
</style>
	<ellipse class="cl0" cx="-301.6" cy="428.6" rx="54.2" ry="35.5"/>
	<ellipse class="cl0" cx="-308" cy="432.8" rx="52.6" ry="37.6"/>
	<path class="cl0" d="M-324.8,468.8c26.7,13,57.6,6.3,68.9-15c11.3-21.3-1.1-49-27.8-62
		c-26.7-13-57.6-6.3-68.9,15C-363.9,428.1-351.5,455.8-324.8,468.8"/>
	<ellipse class="cl1" cx="-312.8" cy="425.4" rx="51.8" ry="45"/>
	<ellipse class="cl1" cx="-310.1" cy="430.1" rx="55.8" ry="40.8"/>
	<path class="cl1" d="M-291.5,473.2c30.8-6.7,49.2-32.7,41.1-58.1c-8.1-25.4-39.7-40.4-70.5-33.7
		c-30.8,6.7-49.2,32.7-41.1,58.1S-322.3,479.9-291.5,473.2"/>
</svg>
